<svg width="152" height="149" viewBox="0 0 152 149" fill="none" xmlns="http://www.w3.org/2000/svg">
<g clip-path="url(#clip0_132_27)">
<path d="M81.0493 149C77.596 149 74.1138 149 70.6606 149C68.7163 148.68 66.743 148.68 64.7698 148.534C60.8522 148.243 57.1379 147.05 53.4815 145.682C44.2245 142.161 36.0993 136.894 29.3669 129.618C19.5876 119.025 13.7259 106.599 12.2749 92.1647C11.2012 81.2516 12.5651 70.6877 16.8599 60.5895C18.1657 57.5338 19.5586 54.5073 21.5029 51.8008C22.0542 51.4807 22.4605 51.8881 22.8668 52.1209C33.6907 58.1741 45.4143 61.0842 57.6022 62.5102C62.9126 63.1213 68.223 63.3541 73.5624 63.4705C86.0115 63.7034 98.3444 62.6848 110.416 59.5418C116.858 57.8539 123.068 55.584 128.872 52.2664C129.307 52.0045 129.743 51.5389 130.352 51.7717C132.877 55.4094 134.647 59.4545 136.214 63.5869C139.493 72.2301 140.538 81.2225 139.87 90.3604C138.855 104.504 133.573 116.988 124.287 127.698C115.465 137.883 104.467 144.547 91.438 147.923C88.391 148.709 85.257 148.68 82.123 148.913C81.8038 148.884 81.3975 148.738 81.0493 149Z" fill="#CFCCC5"/>
<path d="M75.942 125.515C62.2741 125.137 51.7113 118.996 43.7602 107.996C43.1218 107.123 42.5704 106.133 43.499 105.173C44.4566 104.125 45.4433 104.708 46.4299 105.348C54.4681 110.615 63.1447 114.078 72.7789 114.864C81.5426 115.591 89.7549 113.467 97.6479 109.829C100.492 108.52 103.191 107.007 105.773 105.231C106.644 104.62 107.572 104.213 108.443 105.086C109.401 106.017 108.965 107.007 108.327 107.88C100.347 118.967 89.7549 125.166 75.942 125.515Z" fill="#29363F"/>
<path d="M44.7468 80.2039C44.7468 76.9445 45.5303 73.918 47.5326 71.2988C50.7827 67.0209 55.89 66.9918 59.2272 71.2115C63.0867 76.0715 63.0576 84.5692 59.1691 89.4C55.919 93.4742 50.8988 93.4742 47.6777 89.3709C45.5303 86.6936 44.7178 83.5797 44.7468 80.2039Z" fill="#29363F"/>
<path d="M107.253 80.2039C107.282 83.3469 106.557 86.3153 104.729 88.9053C101.42 93.5907 95.9939 93.6198 92.5987 89.0508C89.0294 84.2199 89.0584 76.2461 92.6277 71.4444C95.9649 66.9627 101.246 66.9627 104.583 71.4444C106.499 74.0344 107.253 77.0028 107.253 80.2039Z" fill="#29363F"/>
<path d="M130.352 52.2955C120.95 57.8248 110.706 60.9096 100.027 62.5102C82.5582 65.1293 65.118 65.042 47.7358 61.7535C38.5368 60.0074 29.7442 57.0682 21.6189 52.2955C20.9805 52.7903 20.4002 52.4701 19.8488 52.1209C12.6231 47.5229 6.6743 41.6153 2.26346 34.1944C0.812524 31.7207 0.319206 29.0725 0 26.3369C0 25.6385 0 24.9401 0 24.2416C0.174112 23.7469 0.203131 23.2231 0.261168 22.6992C0.609393 19.3526 3.54028 16.8207 6.93547 16.6461C10.9401 16.4424 14.1611 18.1885 16.5697 21.0696C20.5743 25.8713 25.7106 28.374 31.6014 29.6836C32.8492 29.9746 34.097 30.2657 35.4028 30.353C37.3181 30.4985 37.7824 30.2074 38.2467 28.3449C39.0592 24.911 40.0458 21.5352 41.2356 18.2176C42.8897 13.6487 44.8049 9.16702 47.8809 5.32561C50.9859 1.3678 54.8454 -0.611107 60.0397 0.174635C63.3478 0.669362 66.5109 1.48421 69.5869 2.76467C70.1382 2.99749 70.6896 3.2012 71.2409 3.46311C74.433 4.97639 77.596 4.88909 80.8461 3.46311C84.4735 1.86253 88.1879 0.669362 92.1924 0.145533C97.2127 -0.494701 100.956 1.3387 104.003 5.1219C107.166 9.05061 109.11 13.6778 110.851 18.3922C112.041 21.7098 112.999 25.0856 113.811 28.5196C114.073 29.6254 114.595 30.4985 115.901 30.353C123.213 29.5672 129.946 27.4719 134.908 21.5352C136.562 19.5563 138.535 17.9557 141.002 17.1699C144.484 16.0641 147.734 16.2678 150.346 19.2653C151.158 20.1965 151.507 21.2442 151.681 22.4082C151.797 23.194 151.739 24.0379 151.971 24.8237C151.971 25.3184 151.971 25.8131 151.971 26.3078C151.652 26.7444 151.739 27.2973 151.739 27.7338C151.71 30.4985 150.549 32.8266 149.156 35.0674C144.919 41.9645 139.29 47.4938 132.499 51.859C131.861 52.3246 131.194 52.8776 130.352 52.2955Z" fill="#122C37"/>
<path d="M65.2 47V17.28H77.52C80.72 17.28 83.0133 17.9867 84.4 19.4C85.8133 20.8133 86.52 22.7467 86.52 25.2C86.52 26.3467 86.36 27.36 86.04 28.24C85.7467 29.0933 85.2933 29.8133 84.68 30.4C84.0933 30.96 83.3467 31.3467 82.44 31.56C83.1333 31.7467 83.7867 32.0267 84.4 32.4C85.0133 32.7733 85.5467 33.2667 86 33.88C86.4533 34.4933 86.8 35.2133 87.04 36.04C87.3067 36.8667 87.44 37.8 87.44 38.84C87.44 40.7867 87.0933 42.36 86.4 43.56C85.7067 44.76 84.6667 45.64 83.28 46.2C81.8933 46.7333 80.1733 47 78.12 47H65.2ZM72.96 40.04H77.88C78.36 40.04 78.76 39.9333 79.08 39.72C79.4 39.5067 79.64 39.2133 79.8 38.84C79.9867 38.44 80.08 37.9733 80.08 37.44C80.08 36.9067 79.9867 36.4533 79.8 36.08C79.64 35.68 79.4 35.3733 79.08 35.16C78.76 34.9467 78.36 34.84 77.88 34.84H72.96V40.04ZM72.96 28.96H77.44C78.0267 28.96 78.4533 28.7333 78.72 28.28C79.0133 27.8267 79.16 27.2667 79.16 26.6C79.16 25.6933 78.9733 25.08 78.6 24.76C78.2533 24.4133 77.8667 24.24 77.44 24.24H72.96V28.96Z" fill="#CFCCC5"/>
</g>
<defs>
<clipPath id="clip0_132_27">
<rect width="152" height="149" fill="white"/>
</clipPath>
</defs>
</svg>
